<svg id="Layer_1" data-name="Layer 1" xmlns="http://www.w3.org/2000/svg" viewBox="0 0 30 30"><defs><style>.cls-1{fill:#312d2e;}.cls-2{fill:#f9b118;}.cls-3{fill:#201f1f;}</style></defs><title>Untitled-1</title><path class="cls-1" d="M29.59,13.57a3.34,3.34,0,0,0-4.32,1.56c-1.34-1.13-3-.45-3.47,1.35-2.64-.46-3.25,1.24-3,2.3-2.91-.2-2.6,3.41-2.6,3.41s-.05-.13-.14-.33C15.65,21,14.5,19,12.41,20.09h0C12.2,19,11,17.72,8.72,19.18c-1.14-1.47-2.94-1.43-3.72.13a3.35,3.35,0,0,0-4.59.28h0c0-.08,2.3-5.2,5.77-7.21,2.31.55,5.7,2.54,6.47,2.9.1.05.16.07.15.05a12.82,12.82,0,0,1,0-3.41l1,1.34,1-.22s.22-.91.37-1.61a12.56,12.56,0,0,1,1.35,3.13c0,.16,2.75-3.71,4.92-5.33C25.45,9.71,29.59,13.57,29.59,13.57Z"/><path class="cls-2" d="M13.15,14.32l1.13.24S13.45,15.3,13.15,14.32Z"/><path class="cls-2" d="M15.83,13.77l-.94.66S15.94,14.78,15.83,13.77Z"/><path class="cls-3" d="M12.65,15.28a55.09,55.09,0,0,0-6.3-1.73c-.87.42-2.76,1.46-5.94,6h0c0-.08,2.3-5.2,5.77-7.21C8.49,12.93,11.88,14.92,12.65,15.28Z"/><path class="cls-3" d="M16,21.86C15.65,21,14.5,19,12.41,20.09,12.45,20.05,14.8,17.31,16,21.86Z"/></svg>