<svg id="Layer_1" data-name="Layer 1" xmlns="http://www.w3.org/2000/svg" viewBox="0 0 30 30"><defs><style>.cls-1{fill:#231815;}.cls-2{fill:#fee041;}.cls-3{fill:#555656;}.cls-4{fill:#acabab;}.cls-5{fill:#b0ddeb;}</style></defs><title>Untitled-1</title><path class="cls-1" d="M5,15.23c.14,0,.26-.06.27-.3.12-1.29.93-1.85,1.68-1.82a2.52,2.52,0,0,1,2.48,2.28c.19,1-.37,2.79-1.17,4.47-1,2.14-1.06,4.47.31,5.94a6.44,6.44,0,0,0,4.72,1.67,3.85,3.85,0,0,0-1.08.45H21.3a4.78,4.78,0,0,0-1.57-.57,5,5,0,0,0,1.95-1.66c1.27-1.78,1.29-4,0-4.85a2.4,2.4,0,0,0-2.12-.26,9.51,9.51,0,0,0,.07-1.09A6.22,6.22,0,0,0,18,15c-.52-.47-.73-1,0-1.49a5.79,5.79,0,0,0,3-1.4l.1,0A3.15,3.15,0,0,1,23,13.53l0,0A3.07,3.07,0,0,0,21.18,12a3.79,3.79,0,0,0,.48-.58,4.49,4.49,0,0,1,.64-.1v0l.42,0a3.7,3.7,0,0,1,2.15.61l0,0a3.6,3.6,0,0,0-2.29-.71l-.43,0-.41,0a3.07,3.07,0,0,0,.29-.64,5.62,5.62,0,0,1,.82-.27,6.15,6.15,0,0,1,1.49-.19,3.67,3.67,0,0,1,1.49.27l0-.06A3.67,3.67,0,0,0,24.25,10a6.23,6.23,0,0,0-1.5.19l-.62.19a3,3,0,0,0,.09-.73,3.26,3.26,0,0,0-.85-2.15,23.23,23.23,0,0,1,1.5-4.65c.08-.19-.06-.18-.23-.1a13.38,13.38,0,0,0-4,3.17,6.72,6.72,0,0,0-1.82-.24A7.1,7.1,0,0,0,15,5.89a13.42,13.42,0,0,0-4-3.18c-.17-.08-.31-.09-.23.1a22.28,22.28,0,0,1,1.5,4.71,3.23,3.23,0,0,0-.8,2.09,3,3,0,0,0,.09.73L11,10.15A6.23,6.23,0,0,0,9.45,10a3.67,3.67,0,0,0-1.65.33l0,.06a3.71,3.71,0,0,1,1.49-.27,6.15,6.15,0,0,1,1.49.19,5.25,5.25,0,0,1,.82.27,3.07,3.07,0,0,0,.29.64l-.41,0-.43,0a3.6,3.6,0,0,0-2.29.71l0,0A3.73,3.73,0,0,1,11,11.25l.42,0v0a4.49,4.49,0,0,1,.64.1,3.79,3.79,0,0,0,.48.58,3.07,3.07,0,0,0-1.88,1.56l0,0a3.15,3.15,0,0,1,1.85-1.43l.1,0a5.64,5.64,0,0,0,2.79,1.36c.65.45.67.94.05,1.54a6.52,6.52,0,0,0-1.6,4.52A9.51,9.51,0,0,0,14,20.58a2.4,2.4,0,0,0-2.12.26c-1.26.9-1.25,3.07,0,4.85l.14.19a4.66,4.66,0,0,1-2.33-.78C8.48,24,8.23,22.39,9.16,20.31s1.44-3.6,1-5.15a3.17,3.17,0,0,0-3.35-2.58,2.23,2.23,0,0,0-2,2.26C4.85,15.09,4.91,15.21,5,15.23Z"/><path class="cls-2" d="M16.3,9.85a3.91,3.91,0,0,0-3.58-1.72,2.62,2.62,0,0,0,1.14,3A1.69,1.69,0,0,0,16.3,9.85Z"/><path class="cls-1" d="M14.23,9.48c0,.68.16,1.23.37,1.23s.38-.55.38-1.23-.17-1.23-.38-1.23S14.23,8.8,14.23,9.48Z"/><path class="cls-2" d="M17.32,9.85A3.91,3.91,0,0,1,20.9,8.13a2.62,2.62,0,0,1-1.14,3A1.69,1.69,0,0,1,17.32,9.85Z"/><path class="cls-1" d="M19.39,9.48c0,.68-.16,1.23-.37,1.23s-.38-.55-.38-1.23.17-1.23.38-1.23S19.39,8.8,19.39,9.48Z"/><path class="cls-3" d="M14.69,13.63a3.2,3.2,0,0,1,1.47.61,1,1,0,0,1,.57-.18.94.94,0,0,1,.54.17,3.24,3.24,0,0,1,1.46-.6c.34,0,.47.17.44.45a1.08,1.08,0,0,1-.27.69,1,1,0,0,1,.24.72c0,.28-.27.37-.65.3a4.5,4.5,0,0,1-1.22-.47,1,1,0,0,1-.54.16.93.93,0,0,1-.56-.17,4.39,4.39,0,0,1-1.24.48c-.38.07-.63,0-.65-.3a1,1,0,0,1,.25-.72,1,1,0,0,1-.28-.69C14.23,13.79,14.36,13.61,14.69,13.63Z"/><path class="cls-4" d="M18.49,14.15a.32.32,0,0,1-.32-.32s0-.05,0-.08a2.27,2.27,0,0,1,.55-.12h0a.37.37,0,0,1,.07.2A.32.32,0,0,1,18.49,14.15Z"/><path class="cls-4" d="M18.43,14.45a.32.32,0,0,1,0,.64.32.32,0,0,1,0-.64Z"/><path class="cls-4" d="M18.49,15.42a.32.32,0,0,1,.32.32.17.17,0,0,1,0,.07,1.15,1.15,0,0,1-.31,0l-.31-.08A.31.31,0,0,1,18.49,15.42Z"/><path class="cls-4" d="M14.91,14.15a.32.32,0,0,1-.32-.32.32.32,0,0,1,.08-.2h0a2.12,2.12,0,0,1,.53.12.19.19,0,0,1,0,.08A.32.32,0,0,1,14.91,14.15Z"/><path class="cls-4" d="M15,14.45a.32.32,0,1,1,0,.64.32.32,0,0,1,0-.64Z"/><path class="cls-4" d="M14.91,15.42a.32.32,0,0,1,.32.29l-.3.08a.93.93,0,0,1-.33,0s0,0,0-.06A.32.32,0,0,1,14.91,15.42Z"/><path class="cls-5" d="M17.24,14.21l0,0,0,0Z"/><path class="cls-4" d="M17.65,14a.32.32,0,0,1,.22.3.32.32,0,0,1-.32.32.35.35,0,0,1-.22-.08.94.94,0,0,0-.06-.3Z"/><path class="cls-5" d="M17.24,15.34h0l0,0Z"/><path class="cls-4" d="M17.55,14.94a.32.32,0,0,1,.32.32.32.32,0,0,1-.16.28l-.44-.22a2.33,2.33,0,0,0,.05-.28A.33.33,0,0,1,17.55,14.94Z"/><path class="cls-4" d="M15.85,14.61a.32.32,0,0,1-.09-.62,4.66,4.66,0,0,1,.4.25,1.5,1.5,0,0,0,0,.2A.33.33,0,0,1,15.85,14.61Z"/><polygon class="cls-5" points="16.17 14.24 16.17 14.24 16.16 14.24 16.17 14.24"/><path class="cls-4" d="M15.85,14.94a.31.31,0,0,1,.28.17c0,.06,0,.13,0,.19h0l-.47.23a.32.32,0,0,1-.17-.28A.32.32,0,0,1,15.85,14.94Z"/><path class="cls-1" d="M14.25,9.2A.18.18,0,1,0,14.43,9,.18.18,0,0,0,14.25,9.2Z"/><path class="cls-1" d="M18.66,9.2A.18.18,0,1,0,18.84,9,.18.18,0,0,0,18.66,9.2Z"/></svg>