<svg id="Layer_1" data-name="Layer 1" xmlns="http://www.w3.org/2000/svg" viewBox="0 0 30 30"><defs><style>.cls-1{fill:#138481;}.cls-2{fill:#0c6b77;}.cls-3{fill:#f26f24;}.cls-4{fill:#e75e25;}.cls-5{fill:#201f1f;}.cls-6{fill:#312d2e;}</style></defs><title>Untitled-1</title><path class="cls-1" d="M19.1,2.18h0s-2.8,2.4-3,3.66c-.12.63,1,.63,1.26,1.53a1.49,1.49,0,0,1-.2.88,10.65,10.65,0,0,1-1.57,2.05l-1.08-.22a9.18,9.18,0,0,0,.93-1.52,1.13,1.13,0,0,0,.14-.71c-.11-.3-1.16-.44-1.43-1.61C14.23,3.71,17.31,1,17.31,1Z"/><path class="cls-2" d="M17.14,8.25a10.65,10.65,0,0,1-1.57,2.05l-1.08-.22a9.18,9.18,0,0,0,.93-1.52A8.19,8.19,0,0,1,17.14,8.25Z"/><path class="cls-2" d="M19.1,2.18h0C17.11,2.9,17.31,1,17.31,1Z"/><path class="cls-3" d="M27.25,19.21c0,4.31-2.4,8.57-6,7.85-.53,2-4,2.83-5.94.87-2,2-5.41,1.1-5.94-.87-3.59.72-6-3.54-6-7.85S5.45,10,7.56,9.54s2.68.62,2.68.62a3,3,0,0,1,2.25-1.49,3.53,3.53,0,0,1,2.83,1.25,3.53,3.53,0,0,1,2.83-1.25,3,3,0,0,1,2.25,1.49s.57-1.1,2.68-.62S27.25,14.9,27.25,19.21Z"/><path class="cls-4" d="M15.32,9.92v18c-2,2-5.41,1.1-5.94-.87,0,0-1.66-2.87-1.48-8.62a19.34,19.34,0,0,1,2.34-8.28,3,3,0,0,1,2.25-1.49A3.53,3.53,0,0,1,15.32,9.92Z"/><path class="cls-4" d="M27.25,19.21c0,4.31-2.4,8.57-6,7.85,2.68-11.16-.86-16.9-.86-16.9s.57-1.1,2.68-.62S27.25,14.9,27.25,19.21Z"/><path class="cls-5" d="M23.49,14.92a4.65,4.65,0,0,1-.82,2.5,3.48,3.48,0,0,1-2.28,1.51,6,6,0,0,1-3.72-.62,25.18,25.18,0,0,0,6.61-4.95A4.45,4.45,0,0,1,23.49,14.92Z"/><path class="cls-6" d="M23.49,14.92a4.65,4.65,0,0,1-.82,2.5,3.48,3.48,0,0,1-2.28,1.51,7,7,0,0,1-1.88-.62A22.19,22.19,0,0,0,23.49,14.92Z"/><path class="cls-5" d="M14.18,18.31a6.76,6.76,0,0,1-2.13.66,3.83,3.83,0,0,1-3.87-1.55,4.73,4.73,0,0,1-.61-4.06s.43.47,1.16,1.13A23.33,23.33,0,0,0,14.18,18.31Z"/><path class="cls-6" d="M14.18,18.31a6.76,6.76,0,0,1-2.13.66,3.53,3.53,0,0,1-2.51-1.55,4.79,4.79,0,0,1-.81-2.93A23.33,23.33,0,0,0,14.18,18.31Z"/><polygon class="cls-6" points="16.48 20.97 14.06 20.97 15.27 18.4 16.48 20.97"/><polygon class="cls-5" points="15.27 18.4 14.95 20.97 14.06 20.97 15.27 18.4"/><path class="cls-6" d="M23.46,19.7c-1.11,2.05-2.47,4-4.66,4.87a5.83,5.83,0,0,0-.65-1.69L17.54,25l-1.17.15-.67-1.47-.58,1.53-1.2-.06-.86-1.71-.76,1.5S9,24.26,7.21,19.42a10.83,10.83,0,0,0,1.84,1.3,17.16,17.16,0,0,0,2,1c.55,1.23.65,1.38.65,1.38l.42-1.32,1.66.09.64,1.35.62-1.35,1.07,0,.73,1.57.53-1.69,1.25-.21.52,1.16.39-1.42S23.06,19.91,23.46,19.7Z"/><path class="cls-5" d="M12.3,24.91S9,24.26,7.21,19.42a10.83,10.83,0,0,0,1.84,1.3A10.09,10.09,0,0,0,12.3,24.91Z"/></svg>