<svg id="Layer_1" data-name="Layer 1" xmlns="http://www.w3.org/2000/svg" viewBox="0 0 30 30"><defs><style>.cls-1{fill:#fff;}.cls-2{fill:#2c1227;}.cls-3{fill:#d8d9d8;}.cls-4{fill:#da5427;}.cls-5{fill:#e99b23;}</style></defs><title>Untitled-1</title><path class="cls-1" d="M27.18,15.91A14.77,14.77,0,0,1,26,14.05l-.54-1.4c-.11-.29-.22-.6-.33-.91,0-.12-.05-.24-.09-.36a8.55,8.55,0,0,0-.29-.84,2.39,2.39,0,0,0-.13-.28A13.65,13.65,0,0,0,23.1,7L23,6.78c-.05-.07-.1-.15-.16-.22A9.07,9.07,0,0,0,20.08,4,7.46,7.46,0,0,0,15.75,2.6a19,19,0,0,0-5.63.51,9.9,9.9,0,0,0-2,.76,12,12,0,0,0-1.26.55A9.86,9.86,0,0,0,3.25,7.83l-.31.46c-.33.49-.63,1-.91,1.51-.1.17-.19.35-.29.53A17.63,17.63,0,0,0,1,12.05c-.1.26-.19.53-.28.85a5.67,5.67,0,0,0-.16.84c-.05.38-.09.72-.1,1s0,.61,0,.91,0,.56,0,.83v.09c0,.32.06.63.1.87a7.06,7.06,0,0,0,.21,1c.06.25.15.5.23.74l0,.09c.08.26.18.51.27.76l0,0s0,.08,0,.11.07.19.11.27.17.4.25.56a7.7,7.7,0,0,0,.39.74c.06.11.13.22.21.34l.07.09.18.27a5.24,5.24,0,0,0,.64.74,4.64,4.64,0,0,0,.8.6L4.4,24a3.78,3.78,0,0,0,.51.21,6.77,6.77,0,0,0,.81.21l.78.12h0a6,6,0,0,0,1,.08h.05a7,7,0,0,0,1.79-.24,12.9,12.9,0,0,0,1.36-.48l.24-.1.47-.2.07,0,.35-.17.26-.13.14-.07.26-.12.1-.05c.27-.13.51-.26.73-.38l.33-.18h0a.9.9,0,0,1,.28,0,1.73,1.73,0,0,1,.79.6,7.62,7.62,0,0,1,.8,1.15,11.67,11.67,0,0,0,1.56,2.05,2.16,2.16,0,0,0,1.66.75l.36-.06a1.45,1.45,0,0,0,1.33-.94,2.29,2.29,0,0,0,0-1.65,5.49,5.49,0,0,0-.17-.7c.78,1.3,2.13,2.52,3.64,1.85a2.66,2.66,0,0,0,1.41-1.89,3.08,3.08,0,0,0,0-.91v-.14s-.07-.24-.14-.47-.07-.2-.1-.3c-.11-.32-.2-.62-.15-.6.65.23,1.59,2.1,3.46,1.16a2.46,2.46,0,0,0,1.25-2.61C29.45,18.32,28,17.08,27.18,15.91Z"/><path class="cls-2" d="M21.58,14.9a6.3,6.3,0,0,1-2.33-1.38.15.15,0,0,0-.25.09A20.72,20.72,0,0,0,19.3,16q0,.23.09.42A4.29,4.29,0,0,0,20.06,18c.62.89,1.57.56,1.62-.44,0-.23,0-.29.12-.3l.08,0a.29.29,0,0,0,.13,0h.14a1.27,1.27,0,0,0,.71-.22c.38-.26.31-.8.11-1.21A2.43,2.43,0,0,0,21.58,14.9Z"/><path class="cls-3" d="M3,13.62c-.13.36-.26.71-.38,1.07-.06.17-.12.34-.17.51a5.78,5.78,0,0,0-.12.57,10.17,10.17,0,0,0-.08,1.1v.54l0,.59c0,.17,0,.35,0,.52s0,.34.07.51a4.59,4.59,0,0,0,.1.51c0,.19.1.37.16.56s.05.14.08.22a2,2,0,0,0,.08.22l.18.39.24.46.24.4a3.37,3.37,0,0,0,.21.31c.07.09.13.19.21.29s.09.1.13.16a1.13,1.13,0,0,1,.1.13,2,2,0,0,0,.29.29h0l-.15-.15-.12-.17-.09-.13-.12-.18h0l0-.05h0L3.75,22a2.49,2.49,0,0,1-.15-.28,4.91,4.91,0,0,1-.26-.63c0-.15-.09-.3-.13-.45s-.07-.3-.1-.46-.07-.33-.1-.5a4.59,4.59,0,0,1-.1-.51c0-.22-.06-.45-.08-.67s0-.24,0-.36,0-.2,0-.3c0-.36,0-.72,0-1.08v0c0-.18,0-.36,0-.54v0c0-.18,0-.36,0-.54a2.53,2.53,0,0,1,0-.28,1.24,1.24,0,0,1,0-.27c0-.36.11-.72.16-1.09L3,13.62H3m.48,8.17h0m0,0h0m.45.53h0m-1.19-6a.13.13,0,0,0,0,.06v-.06Z"/><path class="cls-3" d="M5,7.9,4.94,8h0l-.31.32-.29.33c-.18.21-.36.44-.53.67L3.28,10,3,10.41l-.2.35c-.08.14-.16.28-.23.42s-.13.26-.19.4-.23.53-.34.8L2,12.7l-.06.14L1.84,13l-.09.31a3,3,0,0,0-.08.32h0c-.06.29-.12.57-.17.86s0,.29-.05.44,0,.29-.05.44,0,.44,0,.66v.32c0,.11,0,.23,0,.34h0c0,.15,0,.3,0,.46s0,.28.05.42a3,3,0,0,0,.06.42c0,.14,0,.28.07.43a2.93,2.93,0,0,0,.05.29c0,.1,0,.2.07.3s.05.21.08.31l.09.32v0a2,2,0,0,0,.07.23L2,20l.05.13c.06.13.12.26.19.38s.14.26.22.38.14.24.22.36l.22.3h0c-.07-.13-.15-.26-.21-.39l-.1-.2-.09-.2-.18-.39c0-.14-.1-.28-.14-.42h0c0-.14-.07-.29-.11-.44l-.09-.4c0-.14-.06-.27-.08-.41s-.05-.28-.08-.43l0-.21,0-.21c0-.14-.05-.28-.07-.42s0-.57-.06-.86a.07.07,0,0,1,0-.05c0-.14,0-.28,0-.42s0-.3,0-.45,0-.29,0-.43,0-.3,0-.44,0-.32.07-.48.06-.32.09-.47.07-.28.11-.41.09-.27.14-.4.1-.26.16-.39l.18-.42a3.54,3.54,0,0,1,.16-.34l.18-.39.43-.75.21-.35c.09-.13.17-.26.25-.39l.25-.37.23-.37c.15-.24.32-.47.48-.7L4.8,8.2,5,7.9H5M1.36,16.73v0m.3-3.09h0"/><path class="cls-3" d="M10.17,13.4a7.51,7.51,0,0,0-.19.82,6.48,6.48,0,0,0-.06.77,6.78,6.78,0,0,0,0,.9,4.44,4.44,0,0,0,.22.87,5.46,5.46,0,0,0,.35.78,2.7,2.7,0,0,0,.27.39,3.85,3.85,0,0,0,.27.3l.34.31a2.85,2.85,0,0,0,.33.25l.31.19.18.08.17,0,.09,0h0l-.18-.1h0a1,1,0,0,1-.26-.2,4.26,4.26,0,0,1-.67-.85l0,0a3.67,3.67,0,0,1-.26-.48,4.55,4.55,0,0,1-.21-.51c-.07-.17-.13-.34-.2-.52s-.12-.32-.17-.48,0-.18-.08-.27l-.06-.32c0-.19-.07-.38-.11-.57a5.54,5.54,0,0,1-.07-.57l0-.54V13.4h0m1.16,4.5,0,0,0,0m.05.07,0,0,0,0M12.31,19h0"/><path class="cls-3" d="M17.4,14.74a4.81,4.81,0,0,0-.67.52,2.89,2.89,0,0,0-.29.32,3.88,3.88,0,0,0-.23.33c-.07.13-.14.26-.2.4s-.1.25-.15.37-.08.26-.11.39-.07.27-.11.4a2.86,2.86,0,0,1-.2.48,3.07,3.07,0,0,1-.38.56,2.17,2.17,0,0,1-.37.31l-.18.11-.21.14h0l.27-.1h0a2.35,2.35,0,0,0,.37-.14,2.38,2.38,0,0,0,.3-.18,2.61,2.61,0,0,0,.52-.53,5.41,5.41,0,0,0,.7-1.5c.07-.2.14-.39.22-.59s.18-.38.27-.57a7.82,7.82,0,0,1,.45-.72Z"/><path class="cls-3" d="M13.33,9.59a3.52,3.52,0,0,0-.69.3,5.54,5.54,0,0,0-.65.42l-.29.24-.29.3a3.12,3.12,0,0,0-.4.62,2,2,0,0,0-.13.34,1.15,1.15,0,0,0,0,.37h0l0-.14h0s0,0,0,0a.55.55,0,0,1,.06-.18,3.33,3.33,0,0,1,.46-.59l.43-.42.48-.44c.15-.14.31-.27.48-.4a2.43,2.43,0,0,1,.25-.2,2.48,2.48,0,0,1,.26-.19h0M10.92,12h0"/><path class="cls-3" d="M13.84,7.71a2,2,0,0,0-.34,0l-.31.07-.31.08-.35.1c-.2.07-.4.16-.6.25s-.43.24-.65.37a6,6,0,0,0-1.17,1c-.09.09-.17.19-.26.29l-.25.32-.21.32a3.72,3.72,0,0,0-.21.39c-.11.22-.2.46-.29.69s-.15.43-.21.66-.12.55-.17.84l-.06.4,0,.37c0,.26,0,.52,0,.78s0,.55,0,.83a6.35,6.35,0,0,0,.13.76,4.38,4.38,0,0,0,.21.73,4.58,4.58,0,0,0,.33.71l.1.15L9.3,18c.08.1.15.21.22.31h0c-.06-.14-.13-.28-.2-.41a3.69,3.69,0,0,1-.17-.42L9,17.08c0-.14-.06-.29-.08-.44a3.91,3.91,0,0,1,0-.48,3.4,3.4,0,0,1,0-.45,2.28,2.28,0,0,1,0-.37c0-.13,0-.26,0-.39s0-.5,0-.75.05-.52.09-.78l.15-.75a9.18,9.18,0,0,1,.28-.89,8.64,8.64,0,0,1,.38-.88,3.21,3.21,0,0,1,.19-.31l.23-.33c.15-.2.32-.38.48-.57h0l0,0a6.88,6.88,0,0,1,.62-.59l.33-.27.35-.25h0l.17-.1a6.71,6.71,0,0,1,.8-.41,6.32,6.32,0,0,1,.81-.34Zm-3,1.91s0,0,0,0,0,0,0,0"/><path class="cls-3" d="M19.52,7a3.21,3.21,0,0,0-.66.35,2.85,2.85,0,0,0-.62.53,2.27,2.27,0,0,0-.22.32l-.09.16a1.14,1.14,0,0,0-.1.19c0,.12-.1.24-.14.37a2.54,2.54,0,0,0-.1.37,4.28,4.28,0,0,0,0,.8h0c0-.15.05-.31.08-.47s.05-.18.09-.27a2,2,0,0,1,.11-.26,5.16,5.16,0,0,1,.29-.46c.12-.16.25-.31.38-.46h0l.07-.07.35-.33.41-.35c.12-.1.25-.19.39-.29s.24-.18.37-.26l.15-.08h0a2.59,2.59,0,0,0-.72.21"/><path class="cls-3" d="M19.41,5.28a2.83,2.83,0,0,0-.42.06,4.42,4.42,0,0,0-.48.15,3.52,3.52,0,0,0-.4.18,3.93,3.93,0,0,0-.84.63,2.08,2.08,0,0,0-.32.4.88.88,0,0,0-.12.21,1.54,1.54,0,0,0-.11.3h0s.07-.11.11-.17l.11-.12a1.8,1.8,0,0,1,.2-.19l.24-.18.46-.25c.17-.08.35-.15.52-.21l.1,0c.22-.06.45-.11.68-.15s.47-.09.71-.12l.73-.06.68,0a1.47,1.47,0,0,1,.36,0l.2,0h0a1.46,1.46,0,0,0-.59-.31l-.45-.11a5.16,5.16,0,0,0-.88-.1h-.14l-.35,0m-1.09.82h0"/><path class="cls-3" d="M20.41,12.94h0a3.59,3.59,0,0,1,.35.12l.3.18.35.2c.12.07.24.15.37.21l.19.08a1.11,1.11,0,0,0,.26.07,2.57,2.57,0,0,0,.4,0l.23,0a1,1,0,0,0,.25-.06,3.27,3.27,0,0,0,.73-.35l.11-.06h0l-.77.05h-.25l-.28,0-.52-.1-.51-.14L21.05,13l-.3-.06h-.12l-.22,0"/><path class="cls-3" d="M19.11,22.93c-.07.5-.15,1-.26,1.49v0h0a2.36,2.36,0,0,1-.16.47.6.6,0,0,1-.09.13l-.06.05a.09.09,0,0,1-.07,0l-.07,0-.19,0A1.25,1.25,0,0,1,18,25c-.13-.08-.27-.15-.4-.24a2.25,2.25,0,0,1-.39-.3,6.66,6.66,0,0,1-.88-1.09l0-.08-.12-.19h0c.05.14.1.28.16.41s.11.25.17.37a6.25,6.25,0,0,0,.46.79l.11.15a1.14,1.14,0,0,0,.15.16,2.61,2.61,0,0,0,.31.27,1.47,1.47,0,0,0,.83.4.75.75,0,0,0,.44-.09l.11-.07a.57.57,0,0,0,.11-.11.76.76,0,0,0,.11-.14,1.7,1.7,0,0,0,.21-.77,4.07,4.07,0,0,0,0-.78c0-.13,0-.25-.05-.37s-.06-.28-.1-.42h0"/><path class="cls-3" d="M18.51,22.28a2.43,2.43,0,0,0-.22.46c-.07.17-.14.33-.22.49a1.71,1.71,0,0,1-.11.14l-.07.06-.05,0h-.11a.76.76,0,0,1-.16-.06l-.39-.24h0a2.4,2.4,0,0,0,.3.41.66.66,0,0,0,.22.15.35.35,0,0,0,.3,0,.58.58,0,0,0,.27-.2.55.55,0,0,0,.13-.25.83.83,0,0,0,0-.15l.06-.29c0-.18,0-.36,0-.54h0m-.64,1.16h0m-.08,0h0"/><path class="cls-3" d="M24,20.88c0,.23,0,.47,0,.7s0,.49,0,.73v.31a2,2,0,0,1-.05.48,2.76,2.76,0,0,1-.08.27,2.56,2.56,0,0,1-.11.24c0,.07-.09.14-.14.21a.94.94,0,0,1-.12.09l-.18.09H23.1a2.13,2.13,0,0,1-.35-.14,4.94,4.94,0,0,1-.57-.42l-.3-.22a2.34,2.34,0,0,1-.31-.24c-.2-.19-.39-.39-.58-.59s-.19-.2-.28-.31a3,3,0,0,1-.25-.34l-.12-.2-.06-.1a.24.24,0,0,0-.06-.11s0,0,0,0,0,.06,0,.09l0,.07c0,.06,0,.11,0,.17s.07.23.11.34a.47.47,0,0,0,.06.15,1,1,0,0,0,.07.15c.05.1.09.2.15.3s.21.41.33.61a2.56,2.56,0,0,0,.22.35,2.72,2.72,0,0,0,.29.3c.15.14.32.27.48.4l.26.2a1.65,1.65,0,0,0,.37.2l.15,0,.25.07h.37l.18-.05a1.24,1.24,0,0,0,.36-.19,1.2,1.2,0,0,0,.28-.27,2,2,0,0,0,.18-.32,1.82,1.82,0,0,0,.11-.3,1.74,1.74,0,0,0,.05-.22l0-.16c0-.11,0-.23,0-.35a2.46,2.46,0,0,0,0-.26c0-.05,0-.11,0-.17s0-.12,0-.18a3.57,3.57,0,0,0-.1-.35l-.22-.64L24,20.88h0m-3.74.55h0"/><path class="cls-3" d="M23.28,21a7.19,7.19,0,0,0-.2.8l0,.14a2.32,2.32,0,0,1-.13.37l0,0H22.8l-.07,0a1.24,1.24,0,0,1-.22-.18l-.4-.37h0a4.63,4.63,0,0,0,.29.54,1.56,1.56,0,0,0,.16.2.47.47,0,0,0,.32.14l.15,0a.45.45,0,0,0,.13-.11.44.44,0,0,0,.08-.15.38.38,0,0,0,.05-.15,1.57,1.57,0,0,0,.05-.3v-.3c0-.21,0-.41-.05-.62h0m-.37,1.32a0,0,0,0,1,0,0l0,0m0,0h0l0,0,0,0h0m0,0Z"/><path class="cls-3" d="M27.93,18.23a4.34,4.34,0,0,1,.13.94c0,.17,0,.33,0,.49s0,.29,0,.44a1.63,1.63,0,0,1,0,.31,1.9,1.9,0,0,1-.12.36l-.07.11-.12.09-.14.06-.22,0-.35,0L26.89,21l-.18-.07-.39-.24a3.18,3.18,0,0,0-.44-.26h0c.19.22.37.45.57.66a1.71,1.71,0,0,0,.72.48,1.13,1.13,0,0,0,.44.1.93.93,0,0,0,.23,0l.15-.05a.81.81,0,0,0,.21-.1,1,1,0,0,0,.44-.6,2.29,2.29,0,0,0,.07-.28,1.1,1.1,0,0,0,0-.18,1.48,1.48,0,0,0,0-.21,1.35,1.35,0,0,0-.06-.35,2.1,2.1,0,0,0-.06-.24c-.05-.17-.11-.34-.17-.51a3.54,3.54,0,0,0-.49-.87h0"/><path class="cls-3" d="M27.1,17.32v.47c0,.07,0,.15,0,.23a1.93,1.93,0,0,1,0,.24l0,.54c0,.08,0,.16,0,.24a3.93,3.93,0,0,1-.06.48l-.06.15,0,0h0l-.12.06h-.07a.47.47,0,0,1-.15-.06l-.24-.17-.22-.17h0a2.33,2.33,0,0,0,.2.34.69.69,0,0,0,.51.37.53.53,0,0,0,.22,0,.4.4,0,0,0,.22-.14,1.26,1.26,0,0,0,.23-.48,2.56,2.56,0,0,0,.05-.62c0-.12,0-.23,0-.35a3,3,0,0,0-.09-.43,3.62,3.62,0,0,0-.28-.71h0m-.17,2.32v0m0,0,0,0,0,0m-.05,0h0m-.09,0h0Zm-.06,0h0m0,0h0"/><path class="cls-3" d="M12.68,22.08l-.26.09a1.89,1.89,0,0,0-.21.09l-.42.22-.46.21a3.57,3.57,0,0,1-.46.16l-.13,0h0l-.47.11a3.4,3.4,0,0,1-.46.09l-.45.07c-.16,0-.33,0-.5.06l-.38,0H8.09l-.32,0-.35,0L7.1,23.1,6.87,23,6.64,23l-.22-.09-.22-.1-.62-.34h0l-.09,0h0l.45.33a3.08,3.08,0,0,0,.46.31h0l.22.11.23.1a2.69,2.69,0,0,0,.45.16l.52.11.23,0,.23,0a4.34,4.34,0,0,0,.51,0,4.45,4.45,0,0,0,.5-.05,7.51,7.51,0,0,0,.94-.21l.45-.14c.16-.05.31-.12.46-.18a3.48,3.48,0,0,0,.43-.22l.42-.26.17-.11.17-.11a3,3,0,0,1,.36-.18h0m-5.6,1h0m1.41.15h0"/><path class="cls-3" d="M4,19.6l.21.47a3.21,3.21,0,0,0,.24.45,3.6,3.6,0,0,0,.28.4c.1.13.21.26.32.38a4.31,4.31,0,0,0,.37.37l.18.14.2.13a4.3,4.3,0,0,0,.91.39,4.41,4.41,0,0,0,.95.17,3.54,3.54,0,0,0,.46,0h.24l.21,0c.13,0,.26-.06.39-.09H9l-.29,0-.25,0H8.22l-.25,0-.25-.05-.24-.05a3.65,3.65,0,0,1-.56-.18,3.87,3.87,0,0,1-.55-.25l-.3-.17-.31-.19a3.11,3.11,0,0,1-.28-.23L5.19,21l-.3-.3c-.11-.11-.22-.23-.32-.35s-.18-.23-.27-.35L4,19.6H4M5.21,21h0m2.28,1.25h0"/><path class="cls-3" d="M4.51,21.93a1.14,1.14,0,0,0,.1.19,1.19,1.19,0,0,0,.09.15h0a3.43,3.43,0,0,0,.24.33c.09.12.17.23.27.34a3.34,3.34,0,0,0,.33.32,2.91,2.91,0,0,0,.33.26,2.5,2.5,0,0,0,.35.21l.35.16.18.07.18,0,.39,0h0L7,24H7a.7.7,0,0,1-.19-.06l-.2-.09h0l-.07,0-.3-.18L6,23.39c-.2-.15-.38-.3-.56-.46l-.12-.11h0c-.15-.14-.28-.28-.42-.42a3.48,3.48,0,0,1-.38-.48h0"/><path class="cls-2" d="M17.1,12.84a2.12,2.12,0,0,0-.21-.36,3.8,3.8,0,0,0-.33-.37,2.29,2.29,0,0,0-.64-.48,3.12,3.12,0,0,0-.43-.15l-.34-.08a2.55,2.55,0,0,0-.67-.07H14.3a4.51,4.51,0,0,0-.82.12,1.71,1.71,0,0,0-.38.13,2.58,2.58,0,0,0-.44.22,5.34,5.34,0,0,0-.67.59,6.21,6.21,0,0,0-.52.63,1.44,1.44,0,0,0-.19.31l-.12.33-.06.21a3.66,3.66,0,0,0-.09.94c0,.14,0,.29,0,.43a3,3,0,0,0,.07.52,2,2,0,0,0,.11.35c.06.15.12.29.19.43s0,.09,0,.13a3.78,3.78,0,0,0,.38.78,4.15,4.15,0,0,0,.28.36,2.62,2.62,0,0,0,.29.26,3.25,3.25,0,0,0,.34.25l.13.08a1.12,1.12,0,0,0,.24.1,1.26,1.26,0,0,0,.46.07H14a1.09,1.09,0,0,0,.49-.16,2.1,2.1,0,0,0,.31-.25l.1-.1.14-.19a1.65,1.65,0,0,0,.18-.32,2.68,2.68,0,0,0,.14-.43c0-.11.06-.23.08-.34v0a1.57,1.57,0,0,0,0-.23q.13-.33.3-.66a4.38,4.38,0,0,1,.37-.58,1,1,0,0,1,.2-.21,1.33,1.33,0,0,1,.19-.14,2.88,2.88,0,0,0,.39-.3,1.42,1.42,0,0,0,.25-.34,1.39,1.39,0,0,0,.13-.44,1.79,1.79,0,0,0,0-.46,1.4,1.4,0,0,0-.06-.28A2.21,2.21,0,0,0,17.1,12.84ZM15.44,16.5"/><path class="cls-4" d="M14,10.49c-.5-.55-.32,1.74-.32,1.84s0,.12,0,.17v.11c0,.1,0,.21,0,.31v.27l-.06-.07,0,0-.17-.18,0,0-.14-.15-.06-.07a3.34,3.34,0,0,0-.43-.39,4.2,4.2,0,0,0-.44-.33l-.15-.11a3.37,3.37,0,0,0-.31-.21l-.48-.29-.09,0-.42-.23-.5-.3-.48-.31-.1-.07-.4-.27,0,0L9.17,10l0,0-.22-.16-.24-.16-.11-.06h0l-.11-.05h0a.09.09,0,0,0-.08.06h0a.13.13,0,0,0,0,.12l0,.07,0,.07,0,.1c.05.1.09.21.14.34s.11.34.16.51l.18.59.21.56v0c.06.17.13.35.2.53s.15.34.24.52.18.36.28.54a7.3,7.3,0,0,0,.66,1A4,4,0,0,0,11,15l.07.06.16.15.07.06.14.13h0l.23.17.1.07.11.08.42.26a1,1,0,0,0,.21.11l-.14.06-.24.06c-.1,0-.19.06-.28.07-1.69.13-.6.57-.6.56a6.54,6.54,0,0,0,2.06.38,5.16,5.16,0,0,0,1.59-.4,3,3,0,0,0,.42-.73c.13-.26.38-.53.39-.84A7.46,7.46,0,0,0,14,10.49Z"/><path class="cls-5" d="M9.77,11.28h0a.08.08,0,0,0,0,.09.05.05,0,0,0,0,0h0l0,0h0l0,.08c.1.18.18.37.25.52s.17.37.28.57l0,0v0c.08.15.16.3.25.45l.15.26.18.25.19.26.1.11.12.12.23.22.23.2a3.32,3.32,0,0,0,.46.38l.14.1.07,0h0l0,0,.27.16.19.09.06,0,.25.12.2.08.06,0,.23.08h0l-.1,0-.06,0h0l-.05,0,0,0-.05,0h0l-.11,0-.16.08L13,16.1l0,0,0,0-.08.05-.05,0-.09.06-.06,0h0l0,0,0,0a.09.09,0,0,0,0,.05,0,0,0,0,0,0,0l0,0h.9l.17,0h.1l.09,0,.06,0h0l.1,0,.17-.06.17-.06.14-.07h0l.19-.09h0l.11-.06h0l0,0a.14.14,0,0,0,.11-.11v0h0v0a.06.06,0,0,1,0,0v0a.15.15,0,0,1,0-.07v-.09a2.35,2.35,0,0,0,0-.26v-.09h0a5.61,5.61,0,0,0,0-.58c0-.16,0-.33,0-.49v-.11c0-.2-.05-.4-.08-.6v0c0-.17,0-.38-.07-.58s0-.15,0-.23l0-.22,0-.2,0-.15,0-.08v0h0l0-.13a.14.14,0,0,0-.07-.1h-.06a.25.25,0,0,0,0,.07,1,1,0,0,0-.07.29c0,.17-.06.36-.08.6a6.05,6.05,0,0,0,0,.61c0,.11,0,.21,0,.31a2,2,0,0,0,0,.23v.07c0,.2,0,.41.05.62s0,.42.08.62c0,0,0,.07,0,.11l0,0,0-.06-.06-.08,0,0a.44.44,0,0,0-.09-.11l-.07-.08,0,0L14,14.67h0l-.08-.1-.25-.28h0l-.09-.09-.1-.11,0,0L13.35,14l-.24-.24-.19-.19,0,0-.23-.2a5.62,5.62,0,0,0-.47-.38l-.5-.36-.32-.23-.25-.15h0l-.08,0,0,0L10.8,12l-.12-.08h0l-.12-.08a.71.71,0,0,1-.14-.1l-.36-.24-.12-.08-.06-.06,0,0a0,0,0,0,0-.05,0"/><path class="cls-2" d="M20.36,8a2.78,2.78,0,0,0-.5.11,2.6,2.6,0,0,0-.47.24l-.23.2a2.23,2.23,0,0,0-.19.24A2.6,2.6,0,0,0,18.8,11c0,.08.07.16.12.24a1.25,1.25,0,0,0,.16.24,1.48,1.48,0,0,0,.33.28,1.39,1.39,0,0,0,.35.16,2.14,2.14,0,0,0,.43.07,1.82,1.82,0,0,0,.33,0h.23L21,12a4.09,4.09,0,0,1,.62.4,4.89,4.89,0,0,0,.69.42l.26.1a.74.74,0,0,0,.29.05h.28l.19,0a.84.84,0,0,0,.2-.08.78.78,0,0,0,.15-.1l.12-.15.06-.1a1.17,1.17,0,0,0,.1-.26,4,4,0,0,0,.08-.48,3.48,3.48,0,0,0-.2-1.63,3.73,3.73,0,0,0-.2-.4,2.14,2.14,0,0,0-.28-.39,6,6,0,0,0-.54-.59,3.1,3.1,0,0,0-.71-.49A3.24,3.24,0,0,0,21.25,8a2.32,2.32,0,0,0-.59,0l-.3,0"/><path class="cls-4" d="M24,9.68c0-.2-.06-.58.05-.76a.12.12,0,0,0-.17-.16,5.68,5.68,0,0,0-1.17,1,.21.21,0,0,0,0-.11c0-.23,0-.4,0-.56s0-.4-.08-.63a2.66,2.66,0,0,0-.16-.58l0,0a3.67,3.67,0,0,0-1.26-2.1.12.12,0,0,0-.19.11c0,.07-.06,1.08-.08,1.46s-.08.85-.13,1.27A1.77,1.77,0,0,0,20,8a.11.11,0,0,0-.15.09,3.53,3.53,0,0,0,.12,1.6,1.74,1.74,0,0,1-.34-.52.1.1,0,0,0-.19,0,2.39,2.39,0,0,0,.31,1.92,1.54,1.54,0,0,0,.63.5c.09,0,.29.06.39.08a2.9,2.9,0,0,1,1,.5l.18.1a1,1,0,0,0,.87,0c.37-.13.6-.52.81-.82a5.29,5.29,0,0,0,.72-1c0-.12-.1-.28-.22-.2l-.2.13v0A4.62,4.62,0,0,0,24,9.68Z"/><path class="cls-5" d="M23.49,9.7c0-.1-.11-.15-.18-.09a6.92,6.92,0,0,1-.69.52l-.12.06h0l-.07,0-.37.13v-.19a6.11,6.11,0,0,0-.41-2.64c0-.11-.18,0-.2,0-.09.48-.09,1-.18,1.47a3.78,3.78,0,0,0-.12.8,1.79,1.79,0,0,0-.5-.46.09.09,0,0,0-.14.07,2.22,2.22,0,0,0,.21,1.05c-.11-.07-.25-.12-.36-.19s-.2-.19-.33-.27-.19,0-.16.1c.15.53.28,1.24.91,1.38.15,0,.4.18.64.25a1.38,1.38,0,0,0,.3.14,1.07,1.07,0,0,0,.61.09,1.29,1.29,0,0,0,.84-.6s0,0,.05-.06l.2-.27c.06-.08,0-.2-.12-.15a1,1,0,0,1-.42.12,3.65,3.65,0,0,0,.26-.32A2.29,2.29,0,0,0,23.49,9.7Z"/></svg>