<svg id="Layer_1" data-name="Layer 1" xmlns="http://www.w3.org/2000/svg" viewBox="0 0 30 30"><defs><style>.cls-1{fill:#fff;}.cls-2{fill:#d8d9d8;}.cls-3{fill:#2c1227;}</style></defs><title>Untitled-1</title><path class="cls-1" d="M25.11,28.28a2,2,0,0,0-.66-.58,7.22,7.22,0,0,1-1-.72,3.5,3.5,0,0,1-1.05-1.82,6.19,6.19,0,0,1,0-2.23c.65-1.24,1.85-2.69,1.09-4.06a4,4,0,0,0-1.71-1.34A8.53,8.53,0,0,1,19.31,16c-.82-.86-.17-2,.35-2.76A7.82,7.82,0,0,0,21,10.66c.48-2.38-2.19-3.84-2.67-5.94a1.67,1.67,0,0,1,1.41-2.19,1.18,1.18,0,0,1,1,.4c.34.44,0,1-.32,1.37a.13.13,0,0,0,.14.21c.94-.28,2-1.27,1.31-2.17-3.18-4.18-7.66,1.82-8.33,2.55A12.7,12.7,0,0,0,12.68,6l-.35.39a14,14,0,0,0-1.39,2.17A16.59,16.59,0,0,0,9.7,11.23l0,.09a12.65,12.65,0,0,0-.91,3.86v0c-.34,2.18-.41,4.4-.86,6.57a6.91,6.91,0,0,1-.53,1.59,5.19,5.19,0,0,1-1.12,1.39c-.3.3-.61.6-.88.93a6,6,0,0,0-.64,1.2.11.11,0,0,0,.08.15,7.08,7.08,0,0,0,3.41-.69c.46-.22.87-.54,1.35-.72a2,2,0,0,1,1.86.45c.82.54,1.66,1.31,2.7,1.23a4.09,4.09,0,0,0,1.38-.5c.44-.19,1.08-.43,1.53-.14a3,3,0,0,1,.69.88,3.17,3.17,0,0,0,1,1.06c.78.46,1.7-.08,2.5.21.42.15.81.37,1.23.49a3.17,3.17,0,0,0,1.53-.1C24.32,29.14,25.5,28.89,25.11,28.28ZM12,7.06,12,7c-.2.35-.39.7-.56,1s-.5.77-.72,1.17A20.7,20.7,0,0,1,12,7.06ZM8.59,18.13c0,.47-.07.94-.13,1.41C8.51,19.07,8.55,18.6,8.59,18.13Z"/><path class="cls-2" d="M8.33,24.8a3.74,3.74,0,0,1-1.3.86c-.43.16-.88.25-1.31.43a0,0,0,0,0,0,.08,4.16,4.16,0,0,0,2.73-1.23C8.54,24.86,8.41,24.72,8.33,24.8Z"/><path class="cls-2" d="M15.25,25.36c-.14.15-.2.29-.42.36a1.61,1.61,0,0,1-.69,0,5.82,5.82,0,0,1-4-3.2s-.09,0-.07,0a5.37,5.37,0,0,0,2.68,2.9,4.48,4.48,0,0,0,1.77.53c.31,0,.86-.13.86-.55A.08.08,0,0,0,15.25,25.36Z"/><path class="cls-2" d="M23.3,27.94c-1.74-.06-3.74-.19-4.91-1.78,0-.05-.11,0-.08.07a4.1,4.1,0,0,0,2.24,1.57,5.77,5.77,0,0,0,2.76.32C23.4,28.1,23.41,27.94,23.3,27.94Z"/><path class="cls-2" d="M10.59,10.82c-1.11,1.59-.9,3.84-.83,5.71,0,.88.08,1.76,0,2.64a3.23,3.23,0,0,1-.59,2,.06.06,0,0,0,.07.09c.46-.17.55-1,.61-1.42a15.4,15.4,0,0,0,0-2.63c0-.88-.06-1.76-.06-2.63a6.52,6.52,0,0,1,.78-3.72S10.62,10.78,10.59,10.82Z"/><path class="cls-2" d="M9.23,15.82A33.59,33.59,0,0,0,9,19.71a16.12,16.12,0,0,1-1.35,4s.06.08.08,0A20.06,20.06,0,0,0,9,20.1c.28-1.38.15-2.86.29-4.27A0,0,0,1,0,9.23,15.82Z"/><path class="cls-2" d="M9.05,22.17c-.14.22-.23.46-.35.69s-.24.46-.34.7c0,0,.05.07.07,0A9.77,9.77,0,0,0,9.1,22.2S9.07,22.14,9.05,22.17Z"/><path class="cls-2" d="M12.25,23.42A9.32,9.32,0,0,1,11,18.65a26.68,26.68,0,0,1-.13-2.83c0-.88.34-1.74.31-2.63,0-.06-.11-.06-.11,0-.08.93-.3,1.85-.33,2.79a24.42,24.42,0,0,0,.17,2.83,8.87,8.87,0,0,0,1.31,4.64S12.27,23.45,12.25,23.42Z"/><path class="cls-2" d="M21.45,18.61c-.6-.5-1.33-.89-1.65-1.68,0,0-.07,0-.06,0,.38,1.39,2.79,1.81,2.19,3.48-.38,1.07-2,2.44-1,3.65.05.07.17,0,.13-.09a1.65,1.65,0,0,1-.18-1.23,3.64,3.64,0,0,1,.5-1A4.48,4.48,0,0,0,22.21,20,1.65,1.65,0,0,0,21.45,18.61Z"/><path class="cls-2" d="M22.61,21.49a.06.06,0,0,0-.11,0,10.05,10.05,0,0,0-1,2.81,2.55,2.55,0,0,0,.48,2s.09,0,.05-.07a2.71,2.71,0,0,1-.39-2.06C21.72,23.12,22.36,22.41,22.61,21.49Z"/><path class="cls-2" d="M17.09,2.46a8.6,8.6,0,0,0-3.4,3.91s0,0,0,0a10.61,10.61,0,0,1,3.42-3.83C17.2,2.52,17.15,2.42,17.09,2.46Z"/><path class="cls-2" d="M17.07,3.4c-.45.52-1,1-1.4,1.52a0,0,0,1,0,0,0c.43-.55,1-1,1.44-1.49C17.2,3.41,17.11,3.35,17.07,3.4Z"/><path class="cls-2" d="M17.89,5.46a0,0,0,1,0-.07,0,7.64,7.64,0,0,0,1,2.46,5.3,5.3,0,0,1,.55,1.45A2.56,2.56,0,0,1,19.09,11a.07.07,0,0,0,.12.07C20.53,9.15,18.2,7.28,17.89,5.46Z"/><path class="cls-2" d="M18.18,16.54a6.87,6.87,0,0,1-.42-2.29,0,0,0,1,0-.06,0,5.38,5.38,0,0,0,.45,2.31S18.19,16.57,18.18,16.54Z"/><path class="cls-2" d="M20.25,11.34a4.69,4.69,0,0,0-1.73,3.31,0,0,0,0,0,0,0c0-1.41,1.05-2.22,1.74-3.26C20.31,11.36,20.27,11.32,20.25,11.34Z"/><path class="cls-2" d="M15.4,16.15s0,0,0,0a13.58,13.58,0,0,0,.37,2.1s0,0,0,0C15.69,17.55,15.48,16.86,15.4,16.15Z"/><path class="cls-2" d="M18.2,20.42a10.6,10.6,0,0,1-1-2,16.29,16.29,0,0,1-.52-2.3s-.07,0-.06,0a10.33,10.33,0,0,0,1.12,3.75,6.44,6.44,0,0,1,.9,2c.14.67,0,1.36.14,2a0,0,0,0,0,.07,0A5.88,5.88,0,0,0,18.2,20.42Z"/><path class="cls-2" d="M19.76,22.17a6.26,6.26,0,0,0-.45-3.34,0,0,0,0,0-.07,0c.05.57.3,1.14.4,1.7a6.22,6.22,0,0,1-.07,2.15,5.81,5.81,0,0,0,.57,3s0,0,0,0A6.86,6.86,0,0,1,19.76,22.17Z"/><path class="cls-3" d="M14.25,9.67c0-.38,0-1-.47-1-1.84-.2-1.45,2-.53,2.41S14.24,10,14.25,9.67Z"/><path class="cls-3" d="M16.9,9.91c.18-.35.43-.9,0-1.08-1.63-.71-2.27,1.49-1.57,2.1S16.73,10.22,16.9,9.91Z"/><path class="cls-3" d="M14.63,13.1c-1.08,0-2-.51-2.1-1.13a1,1,0,0,0,0,.17c0,.7.93,1.28,2.11,1.31s2.15-.52,2.16-1.22a1.11,1.11,0,0,0,0-.17C16.6,12.67,15.71,13.12,14.63,13.1Z"/><polygon class="cls-3" points="12.91 12.6 12.79 13.5 13.26 12.78 12.91 12.6"/><polyline class="cls-3" points="15.66 12.97 15.69 13.05 15.93 13.81 16.17 12.95"/><polyline class="cls-3" points="13.43 13.01 13.44 13.1 13.55 13.89 13.94 13.09"/><polyline class="cls-3" points="14.14 13.06 14.15 13.14 14.25 13.94 14.64 13.13"/><polyline class="cls-3" points="14.81 13.19 14.83 13.27 15.07 14.04 15.32 13.17"/></svg>