<svg id="Layer_1" data-name="Layer 1" xmlns="http://www.w3.org/2000/svg" viewBox="0 0 30 30"><defs><style>.cls-1{fill:#231815;}.cls-2{fill:#fee041;}</style></defs><title>Untitled-1</title><path class="cls-1" d="M1.38,11.71c.14-.41.69-2.84,1-4.2A35.83,35.83,0,0,0,3.28,2.4c.09.86.22,2.17.22,3.3S3.05,10.53,3,11s-.09.72.32.95a40.41,40.41,0,0,0,6.1,1.61,7.45,7.45,0,0,1,.82-1.91L6.35,9.54a1.4,1.4,0,0,1-.66-1.25A7.89,7.89,0,0,1,6.92,4.34,16.27,16.27,0,0,1,10.65.67,27.13,27.13,0,0,0,7.82,4.75a7.68,7.68,0,0,0-1,3.34c.1.65.22.68.68,1s2.22,1.53,3,2c1.32-2,3.32-3.51,4.49-3.51s3.17,1.52,4.49,3.51c.76-.51,2.62-1.79,3-2s.58-.35.68-1a7.68,7.68,0,0,0-1-3.34A27.13,27.13,0,0,0,19.35.67a16.27,16.27,0,0,1,3.73,3.67,7.89,7.89,0,0,1,1.23,3.95,1.4,1.4,0,0,1-.66,1.25l-3.85,2.1a7.45,7.45,0,0,1,.82,1.91,40.41,40.41,0,0,0,6.1-1.61c.41-.23.41-.5.32-.95S26.5,6.83,26.5,5.7s.13-2.44.22-3.3a35.83,35.83,0,0,0,.91,5.11c.3,1.36.86,3.79,1,4.2S28.5,12.79,27.38,13a56.21,56.21,0,0,0-6.6,1.37,4.17,4.17,0,0,1,0,.61,7.07,7.07,0,0,1-.06.94c1.72.48,5.2,1,6,1.19s1.44.72,1.31,1.13a25.68,25.68,0,0,0-.82,2.8,37.24,37.24,0,0,0-.9,5.11c-.09-.86-.22-2.17-.22-3.3a32.89,32.89,0,0,1,.36-3.89c.09-.45.09-.72-.32-1a41.85,41.85,0,0,0-5.52-1.51,4.66,4.66,0,0,1-.5,1.33c.73.44,2.08,1.33,2.58,1.67a3.44,3.44,0,0,1,1.36,2,9.34,9.34,0,0,1-.27,3.71,10.86,10.86,0,0,1-3,4.29A11.66,11.66,0,0,0,23,24.84a10.2,10.2,0,0,0,0-3,3.2,3.2,0,0,0-1.31-2.11l-1.92-1.41a4.29,4.29,0,0,1-1.53,1.16,3.33,3.33,0,0,1,.21,1.18A3.5,3.5,0,0,1,17,23.53,1.75,1.75,0,0,1,16.69,25a2.37,2.37,0,0,0-.27-1.17,3.51,3.51,0,0,1-2.84,0A2.37,2.37,0,0,0,13.31,25,1.75,1.75,0,0,1,13,23.53a3.5,3.5,0,0,1-1.5-2.88,3.33,3.33,0,0,1,.21-1.18,4.29,4.29,0,0,1-1.53-1.16c-.56.41-1.61,1.17-1.92,1.41A3.24,3.24,0,0,0,7,21.83a9.87,9.87,0,0,0,0,3,11.66,11.66,0,0,0,2.16,4.63,10.86,10.86,0,0,1-3-4.29,9.34,9.34,0,0,1-.27-3.71,3.44,3.44,0,0,1,1.36-2c.5-.34,1.85-1.23,2.58-1.67a4.66,4.66,0,0,1-.5-1.33A41.85,41.85,0,0,0,3.82,18c-.41.23-.41.5-.32,1a32.54,32.54,0,0,1,.37,3.89c0,1.13-.14,2.44-.23,3.3A37.24,37.24,0,0,0,2.74,21a25.68,25.68,0,0,0-.82-2.8c-.13-.41.36-.91,1.31-1.13s4.29-.71,6-1.19A7.07,7.07,0,0,1,9.18,15a4.17,4.17,0,0,1,0-.61A56.21,56.21,0,0,0,2.62,13C1.5,12.79,1.24,12.12,1.38,11.71Z"/><path class="cls-2" d="M13,20.84a1.08,1.08,0,1,0,1.67.91A3.8,3.8,0,0,0,13,20.84Z"/><path class="cls-2" d="M17.06,20.84a1.08,1.08,0,1,1-1.68.91A3.78,3.78,0,0,1,17.06,20.84Z"/></svg>