<svg id="Layer_1" data-name="Layer 1" xmlns="http://www.w3.org/2000/svg" viewBox="0 0 30 30"><defs><style>.cls-1{fill:#da5427;}.cls-2{fill:#fff;}.cls-3{fill:#2c1227;}.cls-4{fill:#d8d9d8;}</style></defs><title>Untitled-1</title><path class="cls-1" d="M15.3,11a7.69,7.69,0,0,1,.24-1.5,2.75,2.75,0,0,0,.12-1c-.17-.49-1.27-.85-1.71-1a4.08,4.08,0,0,0-2-.11c-2.79.07-5.91,2.42-6,5.12-.05,1.54,1.57,2.87,1,4.38a14,14,0,0,1-1.37,1.89,7,7,0,0,0-.87,2.05,5.16,5.16,0,0,0,.73,4A6.3,6.3,0,0,0,7,26.32c.92.74.66,1.52.81,2.51a.15.15,0,0,0,.29,0c.44-1.48-.19-2.68-.68-4.06a3.49,3.49,0,0,1-.13-2.46A3.65,3.65,0,0,1,8.8,20.89c1-.64,2.28-1.37,2.59-2.59.38-1.46-1-3.55.36-4.68.78-.68,1.64-.3,2.41.13.32.18.75.41,1.07.13C15.88,13.32,15.32,11.73,15.3,11Z"/><path class="cls-2" d="M25.83,3.5A8.16,8.16,0,0,1,24.58,15a8.16,8.16,0,0,1-11.5-.72A8.16,8.16,0,0,1,14.33,2.78,8.16,8.16,0,0,1,25.83,3.5Z"/><path class="cls-1" d="M24.68,6.66a4.31,4.31,0,0,1-.43,6.08,4.37,4.37,0,1,1,.43-6.08Z"/><path class="cls-3" d="M24.09,8.6a2.12,2.12,0,1,1-3-.27A2.13,2.13,0,0,1,24.09,8.6Z"/><path class="cls-4" d="M18.44,13.5a6.77,6.77,0,0,1-1.39.84,6.11,6.11,0,0,1-1.65.2.11.11,0,0,0,0,.21,3.06,3.06,0,0,0,3.13-1.17A.06.06,0,0,0,18.44,13.5Z"/><path class="cls-4" d="M17,11.9c-.5.56-1.39.32-2,.13a8,8,0,0,0-1.6-.61c-.06,0-.09.08-.06.13A1.82,1.82,0,0,0,14,12a8.14,8.14,0,0,0,1.26.43c.62.16,1.46.23,1.84-.39C17.19,11.91,17.05,11.83,17,11.9Z"/><path class="cls-4" d="M16.21,8.71a4.3,4.3,0,0,1-2.48-1.35c-.08-.07-.18,0-.13.12a3.27,3.27,0,0,0,2.6,1.36C16.27,8.84,16.28,8.72,16.21,8.71Z"/><path class="cls-4" d="M16.24,5A3.41,3.41,0,0,0,15,4a.06.06,0,0,0-.06.08,7.15,7.15,0,0,0,.94.79A4.28,4.28,0,0,1,17,6.42a.06.06,0,1,0,.12,0A4.31,4.31,0,0,0,16.24,5Z"/><path class="cls-4" d="M17.55,3.09s-.09,0-.08.07A4,4,0,0,0,18,4a2.44,2.44,0,0,1,.48,1.15.07.07,0,0,0,.14,0,2.14,2.14,0,0,0-.34-1A2.46,2.46,0,0,0,17.55,3.09Z"/><path class="cls-4" d="M20.82,2.28a3.19,3.19,0,0,0,.08.92,1.69,1.69,0,0,1-.14,1.11c-.06.08.06.19.12.1a1.71,1.71,0,0,0,.24-1A3.79,3.79,0,0,0,21,2.27.09.09,0,0,0,20.82,2.28Z"/><path class="cls-4" d="M23.68,2.75a4.46,4.46,0,0,0-.28.8,1.72,1.72,0,0,1-.46.75.08.08,0,0,0,.09.13,1.38,1.38,0,0,0,.51-.7,2.18,2.18,0,0,0,.25-1C23.79,2.71,23.71,2.7,23.68,2.75Z"/><path class="cls-4" d="M25.35,4.81a.69.69,0,0,0-.14.25,1.57,1.57,0,0,1-.2.3,1.8,1.8,0,0,0-.29.39.09.09,0,0,0,.15.08c.1-.15.25-.28.36-.42s.3-.39.23-.58A.07.07,0,0,0,25.35,4.81Z"/><path class="cls-4" d="M20.43,14.14s-.07,0-.08,0,.11.47.16.65a1,1,0,0,1-.09.76s0,.1.07.06a.69.69,0,0,0,.22-.69,1.89,1.89,0,0,0-.1-.41C20.57,14.41,20.54,14.22,20.43,14.14Z"/><path class="cls-4" d="M23.16,14.63c-.19-.16-.36-.34-.54-.52s-.19,0-.13.12a3.79,3.79,0,0,0,.47.51c.13.13.29.33.48.34a.07.07,0,0,0,.06-.1C23.47,14.83,23.28,14.73,23.16,14.63Z"/><path class="cls-4" d="M25.49,12.65a4.77,4.77,0,0,1-.51-.13c-.08,0-.12.1-.05.14a1.9,1.9,0,0,0,.4.14,1.13,1.13,0,0,0,.47.12s.08-.06,0-.1A.61.61,0,0,0,25.49,12.65Z"/><path class="cls-4" d="M26.86,9.56a1.77,1.77,0,0,0-1.11.11.07.07,0,0,0,.05.14,2.25,2.25,0,0,1,.52-.08,2.9,2.9,0,0,0,.51,0C26.9,9.72,27,9.59,26.86,9.56Z"/><path class="cls-4" d="M26,6.2a1,1,0,0,0-.66.35c0,.06,0,.16.1.11a1.08,1.08,0,0,1,.71-.25c.19,0,.45.06.6-.08a.07.07,0,0,0,0-.1C26.57,6.08,26.19,6.17,26,6.2Z"/></svg>